<svg width="60" height="60" viewBox="0 0 60 60" fill="none" xmlns="http://www.w3.org/2000/svg">
<circle cx="30" cy="30" r="30" fill="#060606"/>
<g clip-path="url(#clip0_2852_287)">
<path d="M11.2433 27.3915C10.9278 29.514 10.9812 31.6436 11.3653 33.6972C11.4041 33.9046 11.6153 34.0337 11.817 33.9771L17.7031 32.327C17.9441 32.2595 18.1784 32.4539 18.1589 32.7053L17.2706 44.1517C17.2618 44.2655 17.3056 44.378 17.3901 44.454C18.9413 45.8504 20.7528 47.0089 22.7877 47.8532C23.0009 47.9417 23.243 47.8005 23.2771 47.5706L26.229 27.6274C26.2477 27.5004 26.1986 27.3728 26.0998 27.2919L21.4075 23.4477C21.3074 23.3656 21.1714 23.3438 21.0509 23.3905L11.4725 27.1047C11.3512 27.1517 11.2625 27.262 11.2433 27.3915Z" fill="#495BDD"/>
<path d="M18.4234 15.6147L34.0772 28.1633C34.1769 28.2432 34.311 28.2641 34.43 28.2183L40.081 26.0429C40.2017 25.9964 40.2884 25.8886 40.3084 25.76L41.9053 15.5336C41.9256 15.4036 41.8756 15.2713 41.7731 15.1899C40.4498 14.138 38.9661 13.2442 37.3328 12.5537C36.9879 12.4078 36.6408 12.2725 36.2931 12.1484C36.0902 12.0759 35.8799 12.1927 35.8262 12.4029L34.3008 18.3682C34.2383 18.6124 33.9541 18.7197 33.7479 18.5769L24.3672 12.0816C24.2738 12.0169 24.1549 11.9991 24.0472 12.0349C22.0259 12.7076 20.1224 13.7231 18.4246 15.0427C18.2406 15.1856 18.2417 15.469 18.4234 15.6147Z" fill="#495BDD"/>
<path d="M29.4686 35.0239L28.5133 41.0451C28.4929 41.1735 28.5422 41.3031 28.6425 41.3848L36.6199 47.8879C36.721 47.9703 36.8596 47.9928 36.9806 47.9447C38.9251 47.1712 40.7394 46.0725 42.3436 44.6882C42.503 44.5507 42.509 44.3008 42.3592 44.1527L37.9948 39.8386C37.8162 39.662 37.8661 39.3601 38.0919 39.2515L48.3712 34.3053C48.4734 34.2561 48.5483 34.1606 48.5713 34.0488C49.0107 31.9046 49.0753 29.7391 48.789 27.6382C48.7575 27.4075 48.5141 27.2682 48.2992 27.3535L29.6923 34.7433C29.5738 34.7904 29.4887 34.8971 29.4686 35.0239Z" fill="#495BDD"/>
</g>
<defs>
<clipPath id="clip0_2852_287">
<rect width="38" height="36" fill="white" transform="translate(11 12)"/>
</clipPath>
</defs>
</svg>
